<?xml version="1.0" encoding="UTF-8" standalone="no"?>
<!-- Created with Serif DrawPlus 12,0,4,27 (May 24, 08:37:51) (http://www.serif.com) -->
<svg version="1.1" xmlns="http://www.w3.org/2000/svg" xmlns:xlink="http://www.w3.org/1999/xlink" width="816" height="1056">
	<g id="Layer_1">
		<g id="dp_dp001" transform="matrix(1,0,0,1,58.1281,271.23)">
			<path id="dp_path002" fill="white" stroke="black" stroke-width="10" d="M 90.3773,3.51067 C 89.216,3.70533 86.8667,3.87467 83.3547,4.068 L 77.8347,4.35867 L 65.3627,3.51067 C 40.5413,-0.750667 22.0893,-13.924 10.0533,-36.0333 C 0.149333,-54.244 -4.79067,-77.128 -4.79067,-104.661 C -4.79067,-132.34 0.149333,-155.2 10.0533,-173.24 C 22.0893,-195.156 40.6147,-208.329 65.6293,-212.785 C 66.6227,-212.785 68.196,-212.857 70.3267,-213.052 C 72.4333,-213.245 73.984,-213.341 74.928,-213.341 L 78.1253,-213.341 L 90.3773,-212.495 C 137.672,-204.164 161.331,-167.041 161.331,-101.125 C 161.331,-74.7547 156.003,-52.476 145.348,-34.2653 C 132.949,-13.1493 114.619,-0.557333 90.3773,3.51067 Z M 78.1253,-191.184 C 68.2933,-191.184 61.6333,-178.52 58.1227,-153.165 C 56.3787,-140.549 55.5067,-124.155 55.5067,-104.007 C 55.5067,-81.728 56.1853,-65.3587 57.5653,-54.9213 C 60.8107,-29.568 67.664,-16.8787 78.1253,-16.8787 C 88.1747,-16.8787 94.9547,-29.568 98.4413,-54.9213 C 100.016,-66.1573 100.791,-82.624 100.791,-104.297 L 100.791,-113.645 C 100.791,-121.781 100.597,-128.732 100.233,-134.519 C 97.7147,-172.296 90.3533,-191.184 78.1253,-191.184 Z "/>
			<path id="dp_path003" fill="white" stroke="black" stroke-width="10" d="M 232.207,0 L 232.207,-154.304 C 217.144,-146.361 202.445,-142.389 188.109,-142.389 L 188.4,-172.053 L 197.117,-172.901 C 223.029,-175.396 241.336,-187.504 252.016,-209.225 L 291.245,-209.225 L 291.536,0 Z "/>
			<path id="dp_path004" fill="white" stroke="black" stroke-width="10" d="M 450.051,-92.02 C 445.425,-88.364 436.901,-81.2933 424.503,-70.7827 L 401.497,-49.8853 L 485.841,-49.8853 L 486.108,0 L 332.361,0 L 332.628,-30.1493 C 340.595,-39.2293 353.26,-52.2333 370.695,-69.16 C 387.961,-85.8213 400.577,-98.8253 408.52,-108.172 C 422.057,-123.84 429.249,-136.36 430.048,-145.683 L 430.896,-156.192 C 430.896,-157.331 430.896,-158.493 430.896,-159.68 C 431.089,-167.453 428.765,-174.451 423.945,-180.651 C 418.497,-187.431 411.112,-190.821 401.788,-190.821 C 391.327,-190.821 383.093,-186.559 377.088,-178.011 C 371.881,-170.625 369.291,-161.399 369.291,-150.356 C 369.291,-139.653 371.712,-128.077 376.531,-115.655 L 339.312,-124.397 C 336.381,-132.34 334.904,-141.057 334.904,-150.575 C 334.904,-170.311 342.484,-185.979 357.619,-197.553 C 371.397,-208.232 388.445,-213.584 408.811,-213.584 C 430.097,-213.584 448.041,-209.201 462.619,-200.459 C 480.029,-189.997 488.748,-174.791 488.748,-154.812 C 488.748,-134.277 475.84,-113.355 450.051,-92.02 Z "/>
			<path id="dp_path005" fill="white" stroke="black" stroke-width="10" d="M 672.255,-21.4307 C 657.313,-4.40667 633.776,4.11733 601.641,4.11733 L 600.213,4.11733 C 572.873,4.11733 552.435,-2.664 538.875,-16.2 C 529.405,-25.7173 524.684,-36.856 524.684,-49.6427 C 524.684,-56.8347 526.621,-64.4147 530.52,-72.3813 L 562.581,-74.076 C 559.433,-66.376 557.859,-59.4987 557.859,-53.4933 C 557.859,-43.2253 560.668,-34.992 566.287,-28.7933 C 571.856,-22.3507 579.677,-19.1307 589.728,-19.1307 C 613.725,-19.1307 625.712,-33.176 625.712,-61.2907 C 625.712,-74.876 620.385,-84.392 609.729,-89.8413 C 601.981,-93.716 590.527,-95.6533 575.44,-95.6533 L 570.743,-95.6533 C 569.192,-95.6533 566.287,-95.3373 562.024,-94.732 L 562.291,-123.501 L 574.229,-122.291 C 589.388,-122.291 600.721,-124.543 608.252,-129.047 C 617.769,-134.859 622.516,-144.835 622.516,-159.001 C 622.516,-168.276 619.707,-175.832 614.064,-181.644 C 608.252,-187.285 600.697,-190.095 591.423,-190.095 C 582.705,-190.095 575.633,-187.285 570.185,-181.644 C 564.543,-176.001 561.733,-168.833 561.733,-160.116 C 561.733,-156.435 563.089,-150.501 565.777,-142.365 L 533.28,-148.783 C 531.9,-154.207 531.221,-158.565 531.221,-161.835 C 531.221,-178.931 538.971,-192.153 554.493,-201.476 C 567.473,-209.395 582.971,-213.341 600.988,-213.341 C 629.296,-213.341 650.509,-206.659 664.652,-193.316 C 675.113,-183.436 680.343,-171.691 680.343,-158.105 C 680.343,-147.257 677.244,-137.667 671.044,-129.337 C 664.652,-120.789 656.248,-114.468 645.787,-110.376 C 657.992,-106.549 667.679,-100.157 674.823,-91.2213 C 682.571,-81.704 686.445,-70.7587 686.445,-58.36 C 686.445,-44.5813 681.724,-32.28 672.255,-21.4307 Z "/>
		</g>
		<g id="dp_dp006" transform="matrix(1,0,0,1,58.1281,271.23)">
			<path id="dp_path007" fill="white" stroke="black" stroke-width="10" d="M 206.817,289.912 L 206.552,333.985 L 146.763,333.985 L 147.053,289.912 L 64.0413,289.912 L 63.7507,262.863 L 164.852,124.76 L 206.817,124.76 L 207.108,262.307 L 229.823,262.307 L 230.089,289.912 Z M 147.416,192.735 L 98.96,262.307 L 147.416,262.307 Z "/>
			<path id="dp_path008" fill="white" stroke="black" stroke-width="10" d="M 417.953,288.387 C 411.753,305.628 400.203,318.536 383.324,327.084 C 368.819,334.421 351.48,338.103 331.333,338.103 C 305.373,338.103 286.097,331.345 273.529,317.809 C 265.2,308.849 261.035,298.291 261.035,286.063 C 261.035,280.056 262.391,273.664 265.103,266.907 L 298.327,260.805 C 294.452,269.135 292.515,276.667 292.515,283.447 C 292.515,292.769 295.227,300.252 300.627,305.871 C 306.052,311.707 313.365,314.612 322.591,314.612 C 336.079,314.612 346.395,308.971 353.491,297.709 C 359.665,288.193 362.741,276.279 362.741,261.943 C 362.741,250.537 360.053,241.239 354.701,234.023 C 348.72,226.079 340.22,222.108 329.227,222.108 C 313.825,222.108 302.371,229.469 294.84,244.168 L 268.008,238.091 L 288.18,124.76 L 411.173,124.76 L 402.479,170.285 L 307.263,170.285 L 300.967,206.973 C 314.333,198.812 329.42,194.744 346.225,194.744 C 367.124,194.744 384.801,200.847 399.307,213.076 C 414.805,225.837 422.555,242.521 422.555,263.129 C 422.555,271.46 421.028,279.887 417.953,288.387 Z "/>
			<path id="dp_path009" fill="white" stroke="black" stroke-width="10" d="M 517.164,207.36 C 527.625,198.135 540.145,193.533 554.723,193.533 C 572.933,193.533 587.656,200.387 598.892,214.092 C 609.329,226.903 614.56,242.595 614.56,261.168 C 614.56,284.391 607.804,302.965 594.267,316.913 C 580.657,331.031 562.327,338.103 539.224,338.103 C 484.957,338.103 457.835,303.135 457.835,233.175 C 457.835,202.735 464.688,177.357 478.419,156.992 C 494.957,132.751 518.544,120.644 549.177,120.644 C 564.651,120.644 577.728,124.324 588.431,131.661 C 600.66,140.016 606.763,151.567 606.763,166.363 C 606.763,170.819 605.988,175.661 604.413,180.868 L 573.224,186.801 C 575.717,178.785 576.977,172.732 576.977,168.615 C 576.977,150.671 569.228,141.711 553.729,141.711 C 538.28,141.711 527.649,152.317 521.837,173.507 C 518.737,184.816 517.164,196.1 517.164,207.36 Z M 557.459,248.043 C 557.096,227.677 550.993,217.507 539.2,217.507 C 528.183,217.507 520.941,226.128 517.455,243.345 C 516.123,249.932 515.469,259.037 515.469,270.685 C 515.469,283.907 516.22,293.303 517.745,298.872 C 520.845,310.327 527.237,316.065 536.924,316.065 C 550.848,316.065 557.823,299.696 557.823,266.932 C 557.823,265.188 557.823,263.42 557.823,261.677 Z "/>
		</g>
		<g id="dp_dp010" transform="matrix(1,0,0,1,58.1281,271.23)">
			<path id="dp_path011" fill="white" stroke="black" stroke-width="10" d="M 180.447,507.177 L 70.5787,507.177 L 77.82,458.745 L 235.732,458.745 L 235.368,491.8 C 216.02,513.304 201.224,538.488 190.956,567.403 C 181.633,593.943 176.96,621.161 176.96,649.083 C 176.96,650.656 176.96,652.279 176.96,653.999 L 177.251,667.971 L 109.833,667.971 L 111.237,649.929 C 114.943,603.605 131.628,563.383 161.292,529.263 Z "/>
			<path id="dp_path012" fill="white" stroke="black" stroke-width="10" d="M 334.919,672.329 C 313.827,672.329 296.124,667.68 281.788,658.405 C 263.409,646.564 254.207,631.017 254.207,611.789 C 254.207,591.424 264.451,575.732 284.912,564.689 C 268.131,553.067 259.728,537.616 259.728,518.292 C 259.728,498.725 267.453,482.961 282.927,470.975 C 297.239,459.908 314.48,454.387 334.628,454.387 C 351.7,454.387 366.617,458.648 379.379,467.197 C 394.077,476.835 401.44,489.791 401.44,506.088 C 401.44,522.893 393.617,536.115 377.949,545.801 C 403.304,558.2 415.993,576.919 415.993,601.933 C 415.993,613 413.475,623.196 408.461,632.471 C 394.151,659.035 369.62,672.329 334.919,672.329 Z M 331.964,475.696 C 319.372,475.696 309.903,481.315 303.511,492.527 C 301.767,495.651 300.895,498.484 300.895,500.977 C 300.895,510.301 310.097,518.656 328.501,525.993 C 332.181,527.543 339.156,530.352 349.424,534.444 L 357.293,537.351 C 366.375,530.352 370.927,521.125 370.927,509.72 C 370.927,499.259 366.956,490.807 359.013,484.365 C 351.869,478.579 342.837,475.696 331.964,475.696 Z M 345.38,592.901 C 343.443,592.127 338.963,590.407 331.964,587.695 L 305.568,577.185 C 291.984,585.54 285.203,596.776 285.203,610.943 C 285.203,622.784 290.337,632.664 300.604,640.631 C 310.121,648.211 320.873,651.988 332.884,651.988 C 342.788,651.988 351.095,649.348 357.875,644.093 C 365.431,638.281 369.232,630.629 369.232,621.161 C 369.232,608.52 361.289,599.101 345.38,592.901 Z "/>
			<path id="dp_path013" fill="white" stroke="black" stroke-width="10" d="M 548.356,585.661 C 538.088,595.323 525.761,600.167 511.377,600.167 C 493.143,600.167 478.444,593.483 467.232,580.091 C 456.577,567.693 451.249,552.219 451.249,533.621 C 451.249,510.543 458.2,491.557 472.124,476.665 C 486.096,461.967 504.549,454.629 527.457,454.629 C 580.78,454.629 607.443,489.693 607.443,559.823 C 607.443,591.617 600.177,617.601 585.648,637.749 C 569.157,660.803 545.692,672.329 515.252,672.329 C 500.48,672.329 487.767,668.576 477.112,661.045 C 465.077,652.472 459.072,641.091 459.072,626.949 C 459.072,622.493 459.847,617.553 461.42,612.153 L 493.385,605.348 C 490.309,612.589 488.76,618.861 488.76,624.14 C 488.76,642.06 496.316,651.02 511.401,651.02 C 525.351,651.02 535.424,643.149 541.624,627.433 C 546.103,616.124 548.356,602.2 548.356,585.661 Z M 529.443,476.665 C 514.937,476.665 507.673,494.779 507.673,531.029 C 507.673,544.009 508.253,553.017 509.44,558.079 C 512.128,569.679 517.844,575.465 526.537,575.465 C 530.217,575.465 533.899,574.109 537.579,571.421 C 545.909,564.036 550.051,548.635 550.051,525.217 C 550.051,512.02 549.276,502.213 547.725,495.82 C 544.651,483.059 538.548,476.665 529.443,476.665 Z "/>
		</g>
	</g>
</svg>