<?xml version="1.0" encoding="iso-8859-1"?>
<!-- Generator: Adobe Illustrator 19.0.0, SVG Export Plug-In . SVG Version: 6.00 Build 0)  -->
<svg xmlns="http://www.w3.org/2000/svg" xmlns:xlink="http://www.w3.org/1999/xlink" version="1.1" id="Layer_1" x="0px" y="0px" viewBox="0 0 512.001 512.001" style="enable-background:new 0 0 512.001 512.001;" xml:space="preserve" width="512px" height="512px">
<g>
	<g>
		<g>
			<path d="M110.345,190.336v34.225c0,2.737,2.225,4.952,4.961,4.952h13.815c0.309-1.201,0.786-2.33,1.218-3.478     c0.212-0.565,0.353-1.156,0.591-1.704c0.847-1.942,1.845-3.796,3.01-5.544c0.265-0.388,0.591-0.724,0.865-1.103     c0.962-1.333,1.986-2.604,3.125-3.787c0.521-0.539,1.086-1.006,1.633-1.51c1.015-0.927,2.048-1.81,3.169-2.613     c0.653-0.477,1.324-0.909,2.013-1.333c1.139-0.715,2.313-1.342,3.531-1.924c0.733-0.344,1.448-0.689,2.198-0.98     c1.351-0.53,2.745-0.936,4.175-1.307c0.689-0.168,1.342-0.397,2.039-0.53c2.154-0.406,4.352-0.671,6.621-0.671     c2.269,0,4.467,0.265,6.621,0.671c0.697,0.132,1.351,0.362,2.039,0.53c1.43,0.371,2.825,0.777,4.175,1.307     c0.75,0.291,1.465,0.636,2.198,0.98c1.218,0.583,2.392,1.209,3.531,1.924c0.689,0.424,1.359,0.856,2.013,1.333     c1.121,0.803,2.154,1.686,3.169,2.613c0.547,0.503,1.112,0.971,1.633,1.51c1.139,1.183,2.163,2.454,3.125,3.787     c0.274,0.38,0.6,0.715,0.865,1.103c1.165,1.748,2.163,3.602,3.01,5.544c0.238,0.547,0.38,1.139,0.591,1.704     c0.433,1.148,0.909,2.278,1.218,3.478h72.863c0.309-1.201,0.786-2.33,1.218-3.478c0.212-0.565,0.353-1.156,0.591-1.704     c0.847-1.942,1.845-3.796,3.01-5.544c0.265-0.388,0.591-0.724,0.865-1.103c0.962-1.333,1.986-2.604,3.125-3.787     c0.521-0.539,1.086-1.006,1.633-1.51c1.015-0.927,2.048-1.81,3.169-2.613c0.653-0.477,1.324-0.909,2.013-1.333     c1.139-0.715,2.313-1.342,3.531-1.924c0.733-0.344,1.448-0.689,2.198-0.98c1.351-0.53,2.745-0.936,4.175-1.307     c0.689-0.168,1.342-0.397,2.039-0.53c2.154-0.406,4.352-0.671,6.621-0.671c2.269,0,4.467,0.265,6.621,0.671     c0.697,0.132,1.351,0.362,2.039,0.53c1.43,0.371,2.825,0.777,4.175,1.307c0.75,0.291,1.465,0.636,2.198,0.98     c1.218,0.583,2.392,1.209,3.531,1.924c0.689,0.424,1.359,0.856,2.013,1.333c1.121,0.803,2.154,1.686,3.169,2.613     c0.547,0.503,1.112,0.971,1.633,1.51c1.139,1.183,2.163,2.454,3.125,3.787c0.274,0.38,0.6,0.715,0.865,1.103     c1.165,1.748,2.163,3.602,3.01,5.544c0.238,0.547,0.38,1.139,0.591,1.704c0.433,1.148,0.909,2.278,1.218,3.478h13.815     c2.737,0,4.961-2.216,4.961-4.952v-34.225c0-2.737-2.224-4.961-4.961-4.961h-21.522H136.828h-21.522     C112.569,185.375,110.345,187.599,110.345,190.336z" fill="#FFFFFF"/>
			<path d="M285.802,128.405c-2.154-3.019-5.667-4.82-9.375-4.82h-33.668v44.138h71.124L285.802,128.405z" fill="#FFFFFF"/>
			<path d="M225.103,123.586h-33.66c-3.716,0-7.23,1.801-9.384,4.82l-28.081,39.318h71.124V123.586z" fill="#FFFFFF"/>
			<path d="M163.31,220.69c-9.737,0-17.655,7.918-17.655,17.655c0,9.737,7.918,17.655,17.655,17.655s17.655-7.918,17.655-17.655     C180.966,228.608,173.047,220.69,163.31,220.69z" fill="#FFFFFF"/>
			<path d="M304.552,220.69c-9.737,0-17.655,7.918-17.655,17.655c0,9.737,7.918,17.655,17.655,17.655     c9.737,0,17.655-7.918,17.655-17.655C322.207,228.608,314.289,220.69,304.552,220.69z" fill="#FFFFFF"/>
			<polygon points="295.724,0 172.138,0 172.138,44.138 172.138,52.966 295.715,52.966    " fill="#FFFFFF"/>
			<path d="M419.31,52.966v222.332c2.586,3.416,4.423,7.459,5.12,11.979l2.057,13.374l10.355-7.442     c4.405-2.975,9.534-4.546,14.848-4.546c0.997,0,1.96,0.177,2.931,0.282V26.483C454.621,11.882,442.739,0,428.138,0H313.379v35.31     h88.276C411.392,35.31,419.31,43.229,419.31,52.966z" fill="#FFFFFF"/>
			<path d="M345.354,495.414l-10.496,8.174c-4.626,3.363-10.019,5.12-15.669,5.12c-7.089,0-13.736-2.754-18.732-7.751     l-17.293-17.293c-2.075-2.074-3.699-4.449-4.943-6.974H66.208c-9.737,0-17.655-7.927-17.655-17.655V52.966     c0-9.737,7.918-17.655,17.655-17.655h88.276V0.001H39.725c-14.601,0-26.483,11.882-26.483,26.483v459.034     c0,14.601,11.882,26.483,26.483,26.483h309.169c-0.433-1.236-0.839-2.498-1.095-3.822L345.354,495.414z" fill="#FFFFFF"/>
			<path d="M66.208,52.964v406.069h209.92c0.706-3.125,1.96-6.162,3.84-8.942l7.274-10.743l-13.206-1.677     c-13.012-2.004-22.449-13.012-22.449-26.174v-24.444c0-12.676,9.031-23.605,21.477-26.006l12.765-2.454l-8.174-10.496     c-7.804-10.646-6.682-25.115,2.648-34.419l17.276-17.276c5.014-4.996,11.661-7.742,18.732-7.742     c5.288,0,10.408,1.563,14.804,4.52l13.912,9.428l2.772-16.287c2.41-12.456,13.339-21.495,26.015-21.495h24.444     c1.165,0,2.278,0.168,3.399,0.309V52.964H313.38c0,9.737-7.927,17.655-17.655,17.655H172.139     c-9.737,0-17.655-7.918-17.655-17.655H66.208z M233.932,423.722H101.518c-4.882,0-8.828-3.946-8.828-8.828     s3.946-8.828,8.828-8.828h132.414c4.882,0,8.828,3.946,8.828,8.828S238.814,423.722,233.932,423.722z M233.932,379.584H101.518     c-4.882,0-8.828-3.946-8.828-8.828c0-4.882,3.946-8.828,8.828-8.828h132.414c4.882,0,8.828,3.946,8.828,8.828     C242.76,375.638,238.814,379.584,233.932,379.584z M233.932,335.447H101.518c-4.882,0-8.828-3.946-8.828-8.828     c0-4.882,3.946-8.828,8.828-8.828h132.414c4.882,0,8.828,3.946,8.828,8.828C242.76,331.501,238.814,335.447,233.932,335.447z      M167.699,118.147c5.464-7.645,14.336-12.217,23.737-12.217h84.983c9.41,0,18.282,4.573,23.746,12.217l35.407,49.576h16.984     c12.473,0,22.616,10.152,22.616,22.616v34.225c0,12.465-10.143,22.607-22.616,22.607h-13.948     c-3.946,15.192-17.646,26.483-34.057,26.483s-30.111-11.29-34.057-26.483h-73.128c-3.946,15.192-17.646,26.483-34.057,26.483     c-16.41,0-30.111-11.29-34.057-26.483h-13.956c-12.465,0-22.607-10.143-22.607-22.607v-34.225     c0-12.465,10.143-22.616,22.607-22.616h16.993L167.699,118.147z" fill="#FFFFFF"/>
			<path d="M384,370.759c-14.601,0-26.483,11.882-26.483,26.483s11.882,26.483,26.483,26.483s26.483-11.882,26.483-26.483     S398.601,370.759,384,370.759z" fill="#FFFFFF"/>
			<path d="M491.591,378.377l-12.747-2.445c-5.976-1.148-10.681-5.058-12.906-10.734c-2.233-5.658-1.439-11.732,2.163-16.64     l8.015-10.911c2.578-3.513,2.207-8.386-0.883-11.467l-17.293-17.284c-2.993-2.984-7.698-3.425-11.193-1.068l-10.734,7.274     c-5.041,3.434-11.14,3.99-16.728,1.545c-5.579-2.428-9.313-7.283-10.24-13.312l-2.057-13.365     c-0.671-4.308-4.378-7.486-8.73-7.486h-24.444c-4.237,0-7.874,3.01-8.678,7.168l-3.16,16.463     c-1.121,5.844-4.926,10.505-10.425,12.782c-5.517,2.304-11.485,1.66-16.419-1.668l-13.877-9.401     c-3.513-2.357-8.201-1.916-11.193,1.068l-17.293,17.284c-3.09,3.081-3.46,7.954-0.883,11.467l8.015,10.911     c3.602,4.908,4.396,10.982,2.163,16.64c-2.225,5.676-6.93,9.587-12.906,10.734l-12.747,2.445     c-4.158,0.803-7.168,4.44-7.168,8.677v24.444c0,4.352,3.178,8.06,7.486,8.73l13.365,2.057c6.029,0.927,10.884,4.661,13.312,10.24     c2.436,5.588,1.871,11.679-1.545,16.728l-7.274,10.734c-2.366,3.505-1.924,8.201,1.068,11.193l17.284,17.293     c3.072,3.072,7.945,3.452,11.467,0.883l10.911-8.015c4.899-3.602,10.982-4.396,16.64-2.163c5.676,2.225,9.587,6.93,10.734,12.906     l2.445,12.747c0.803,4.158,4.44,7.168,8.678,7.168h24.444c4.352,0,8.06-3.178,8.73-7.486l1.448-9.401     c0.927-6.073,4.864-11.087,10.531-13.444c5.676-2.339,12.014-1.571,16.958,2.057l7.671,5.632     c3.531,2.578,8.395,2.198,11.467-0.883l17.284-17.293c2.993-2.993,3.434-7.689,1.068-11.193l-7.274-10.734     c-3.416-5.049-3.981-11.14-1.545-16.728c2.428-5.579,7.283-9.313,13.312-10.24l13.365-2.057c4.308-0.671,7.486-4.378,7.486-8.73     v-24.444C498.759,382.817,495.748,379.18,491.591,378.377z M384,441.379c-24.338,0-44.138-19.8-44.138-44.138     s19.8-44.138,44.138-44.138s44.138,19.8,44.138,44.138S408.338,441.379,384,441.379z" fill="#FFFFFF"/>
		</g>
	</g>
</g>
<g>
</g>
<g>
</g>
<g>
</g>
<g>
</g>
<g>
</g>
<g>
</g>
<g>
</g>
<g>
</g>
<g>
</g>
<g>
</g>
<g>
</g>
<g>
</g>
<g>
</g>
<g>
</g>
<g>
</g>
</svg>
