<?xml version="1.0" encoding="iso-8859-1"?>
<!-- Generator: Adobe Illustrator 19.0.0, SVG Export Plug-In . SVG Version: 6.00 Build 0)  -->
<svg xmlns="http://www.w3.org/2000/svg" xmlns:xlink="http://www.w3.org/1999/xlink" version="1.1" id="Layer_1" x="0px" y="0px" viewBox="0 0 512.002 512.002" style="enable-background:new 0 0 512.002 512.002;" xml:space="preserve" width="512px" height="512px">
<g>
	<g>
		<g>
			<path d="M500.462,252.94l-15.43-8.993c-29.418-17.145-62.963-26.206-97.011-26.206h-61.123     c-17.992-12.235-68.389-38.53-89.184-44.421c-3.379-0.959-6.924-0.29-9.725,1.828c-2.77,2.095-4.425,5.42-4.425,8.893v12.601     c0,4.589,2.756,8.651,7.02,10.347c2.386,0.949,6.715,2.702,11.926,4.943c-1.413,1.686-2.395,3.676-2.876,5.81h-40.195v-13.164     c0-9.965-7.782-18.381-17.717-19.161c-9.015-0.716-17.377,5.062-19.934,13.715l-2.978,10.078l-5.412-1.617     c-17.689-5.286-36.305-5.023-53.837,0.759c-4.716,1.556-9.626,2.344-14.593,2.344H46.254c-18.265,0-29.148,8.83-35.061,16.236     c-6.86,8.593-10.802,20.13-10.824,31.671l-0.361,15.507c-0.227,9.738,4.409,18.874,12.402,24.441     c12.004,8.362,25.884,13.613,40.385,15.342c8.488,15.037,24.609,25.218,43.073,25.218c18.196,0,34.116-9.889,42.699-24.567     h224.941c8.583,14.678,24.503,24.567,42.698,24.567c18.23,0,34.175-9.925,42.746-24.649c7.081-0.213,14.177-0.883,21.154-2.015     l27.399-4.442c8.4-1.363,14.495-8.527,14.495-17.036v-17.949C512,264.783,507.579,257.088,500.462,252.94z M471.531,254.591     l-2.384,0.909c-0.876,0.331-1.871,0.037-2.42-0.719l-2.985-4.101C466.365,251.923,468.967,253.216,471.531,254.591z      M239.437,193.443v-2.825c14.177,5.273,37.811,16.848,56.516,27.125h-6.312c-1.453-1.339-3.229-2.346-5.224-2.875l-1.257-0.333     C269.758,206.142,248.968,197.319,239.437,193.443z M269.227,227.254l-13.524,0.849l-0.34-4.53L269.227,227.254z M177.01,203.631     c0.444-1.507,1.896-2.512,3.471-2.389c1.73,0.135,3.086,1.601,3.086,3.336v11.941c-0.771-0.185-1.543-0.371-2.305-0.599     l-7.243-2.165L177.01,203.631z M95.868,323.238c-18.507,0-33.564-15.057-33.564-33.565c0-18.507,15.057-33.564,33.564-33.564     c18.508,0,33.565,15.057,33.565,33.564C129.433,308.181,114.377,323.238,95.868,323.238z M406.207,323.238     c-18.507,0-33.564-15.057-33.564-33.565c0-18.507,15.057-33.564,33.564-33.564c18.508,0,33.565,15.057,33.565,33.564     C439.772,308.181,424.715,323.238,406.207,323.238z M496.13,290.97h-0.002c0,0.684-0.49,1.258-1.164,1.367l-27.398,4.442     c-4.193,0.68-8.433,1.162-12.684,1.476c0.491-2.789,0.761-5.654,0.761-8.582c0-27.26-22.178-49.437-49.438-49.437     s-49.437,22.178-49.437,49.437c0,3.074,0.296,6.078,0.836,8.998H144.471c0.54-2.92,0.836-5.924,0.836-8.998     c0-27.26-22.178-49.437-49.438-49.437s-49.437,22.178-49.437,49.437c0,2.418,0.183,4.794,0.52,7.121     c-9.104-2.089-17.759-5.895-25.47-11.267c-3.612-2.515-5.707-6.645-5.604-11.047l0.363-15.595     c0.001-0.061,0.002-0.123,0.002-0.184c0-11.113,6.273-32.132,30.012-32.132H84.97c6.658,0,13.24-1.057,19.564-3.143     c14.432-4.76,29.76-4.977,44.32-0.624l27.863,8.326c5.521,1.65,11.241,2.487,17.004,2.487h46.677     c1.489,6.062,6.993,10.489,13.345,10.489c0.286,0,0.572-0.008,0.861-0.026l27.632-1.734c3.341-0.209,6.393-1.715,8.591-4.24     c1.158-1.329,1.995-2.855,2.499-4.488h94.694c16.513,0,32.892,2.346,48.656,6.859l17.217,23.649     c3.45,4.737,8.915,7.381,14.538,7.381c2.135,0,4.292-0.381,6.369-1.172l14.496-5.526l3.174,1.849     c2.257,1.315,3.658,3.754,3.658,6.366V290.97z" fill="#FFFFFF"/>
			<path d="M406.207,263.098c-14.654,0-26.575,11.922-26.575,26.576s11.922,26.576,26.575,26.576     c14.654,0,26.576-11.922,26.576-26.576S420.861,263.098,406.207,263.098z M406.207,300.377c-5.901,0-10.702-4.801-10.702-10.703     s4.801-10.703,10.702-10.703c5.902,0,10.703,4.801,10.703,10.703C416.91,295.576,412.109,300.377,406.207,300.377z" fill="#FFFFFF"/>
			<path d="M95.868,263.098c-14.654,0-26.576,11.922-26.576,26.576s11.923,26.576,26.576,26.576s26.576-11.922,26.576-26.576     C122.445,275.02,110.522,263.098,95.868,263.098z M95.868,300.377c-5.902,0-10.703-4.801-10.703-10.703     s4.801-10.703,10.703-10.703c5.902,0,10.703,4.801,10.703,10.703C106.572,295.576,101.771,300.377,95.868,300.377z" fill="#FFFFFF"/>
			<path d="M299.343,279.386H177.756c-4.384,0-7.936,3.553-7.936,7.936s3.552,7.937,7.936,7.937h121.586     c4.384,0,7.936-3.553,7.936-7.937C307.279,282.939,303.726,279.386,299.343,279.386z" fill="#FFFFFF"/>
			<path d="M188.356,243.842c0-4.383-3.552-7.936-7.936-7.936h-21.192c-4.384,0-7.936,3.553-7.936,7.936s3.552,7.936,7.936,7.936     h21.19C184.802,251.779,188.356,248.225,188.356,243.842z" fill="#FFFFFF"/>
		</g>
	</g>
</g>
<g>
</g>
<g>
</g>
<g>
</g>
<g>
</g>
<g>
</g>
<g>
</g>
<g>
</g>
<g>
</g>
<g>
</g>
<g>
</g>
<g>
</g>
<g>
</g>
<g>
</g>
<g>
</g>
<g>
</g>
</svg>
