<?xml version="1.0" encoding="iso-8859-1"?>
<!-- Generator: Adobe Illustrator 18.0.0, SVG Export Plug-In . SVG Version: 6.00 Build 0)  -->
<!DOCTYPE svg PUBLIC "-//W3C//DTD SVG 1.1//EN" "http://www.w3.org/Graphics/SVG/1.1/DTD/svg11.dtd">
<svg xmlns="http://www.w3.org/2000/svg" xmlns:xlink="http://www.w3.org/1999/xlink" version="1.1" id="Capa_1" x="0px" y="0px" viewBox="0 0 470.699 470.699" style="enable-background:new 0 0 470.699 470.699;" xml:space="preserve" width="512px" height="512px">
<g id="html-5_1_">
	<path d="M43.702,0c-9.181,0-16.069,7.769-15.261,16.949l35.01,392.305c0.81,9.173,8.744,18.774,17.643,21.253l138.006,38.335   c8.884,2.463,23.411,2.479,32.311,0.032l138.178-38.281c8.901-2.472,16.833-11.986,17.643-21.175l35.024-392.469   C443.067,7.769,436.209,0,426.983,0H43.702z M362.904,119.449c-0.811,9.195-9.196,13.131-18.377,13.131H178.418   c-9.195,0-16.1,11.083-15.259,20.256l1.792,24.705c0.811,9.18,9.025,21.338,18.254,21.338H339.93   c9.182,0,16.085,4.652,15.243,13.826l-11.331,125.434c-0.811,9.173-8.745,17.995-17.645,20.442l-74.786,20.38   c-8.868,2.455-23.395,2.283-32.311-0.194l-74.613-20.794c-8.87-2.462-16.804-12.032-17.645-21.205l-4.474-52.684   c-0.843-9.173,6.062-18.914,15.259-18.914h18.876c9.227,0,17.441,9.719,18.252,18.891l0.903,11.223   c0.811,9.197,8.777,19.211,17.677,21.627l25.765,7.217c8.915,2.416,23.474,2.549,32.374,0.141l25.873-6.929   c8.9-2.416,16.866-11.839,17.675-21.034l3.103-32.654c0.811-9.181-6.08-15.058-15.273-15.058H135.461   c-9.196,0-17.426-9.126-18.268-18.321l-11.098-127.586c-0.841-9.189,6.047-19.818,15.244-19.818h228.005   c9.227,0,16.085,8.034,15.274,17.23L362.904,119.449z" fill="#FFFFFF"/>
</g>
<g>
</g>
<g>
</g>
<g>
</g>
<g>
</g>
<g>
</g>
<g>
</g>
<g>
</g>
<g>
</g>
<g>
</g>
<g>
</g>
<g>
</g>
<g>
</g>
<g>
</g>
<g>
</g>
<g>
</g>
</svg>
