<?xml version="1.0" encoding="iso-8859-1"?>
<!-- Generator: Adobe Illustrator 18.0.0, SVG Export Plug-In . SVG Version: 6.00 Build 0)  -->
<!DOCTYPE svg PUBLIC "-//W3C//DTD SVG 1.1//EN" "http://www.w3.org/Graphics/SVG/1.1/DTD/svg11.dtd">
<svg xmlns="http://www.w3.org/2000/svg" xmlns:xlink="http://www.w3.org/1999/xlink" version="1.1" id="Capa_1" x="0px" y="0px" viewBox="0 0 326.868 326.868" style="enable-background:new 0 0 326.868 326.868;" xml:space="preserve" width="512px" height="512px">
<g>
	<path d="M228.106,164.505l-67.254-0.126l45.273-54.61c14.656-15.79,21.98-27.412,21.98-50.654v-4.547   C228.106,28.8,211.434,0,163.434,0C119.475,0,98.76,21.473,98.76,63.915v5.053h40.422c0-25.011,9.094-33.601,22.986-33.601h2.529   c13.387,0,22.986,8.843,22.986,26.779v2.527c0,10.863-4.293,17.178-13.135,26.526l-75.789,83.62v25.516h129.346V164.505z" fill="#FFFFFF"/>
	<rect x="38.434" y="239.597" width="250" height="30" fill="#FFFFFF"/>
	<rect x="38.434" y="296.868" width="250" height="30" fill="#FFFFFF"/>
</g>
<g>
</g>
<g>
</g>
<g>
</g>
<g>
</g>
<g>
</g>
<g>
</g>
<g>
</g>
<g>
</g>
<g>
</g>
<g>
</g>
<g>
</g>
<g>
</g>
<g>
</g>
<g>
</g>
<g>
</g>
</svg>
