<?xml version="1.0" encoding="UTF-8" standalone="no"?>
<!-- Generator: Adobe Illustrator 15.0.0, SVG Export Plug-In . SVG Version: 6.00 Build 0)  -->
<svg
   xmlns:dc="http://purl.org/dc/elements/1.1/"
   xmlns:cc="http://creativecommons.org/ns#"
   xmlns:rdf="http://www.w3.org/1999/02/22-rdf-syntax-ns#"
   xmlns:svg="http://www.w3.org/2000/svg"
   xmlns="http://www.w3.org/2000/svg"
   xmlns:sodipodi="http://sodipodi.sourceforge.net/DTD/sodipodi-0.dtd"
   xmlns:inkscape="http://www.inkscape.org/namespaces/inkscape"
   version="1.0"
   id="Vrstva_1"
   x="0px"
   y="0px"
   width="659.83917"
   height="270.00006"
   viewBox="0 0 609.84 354.33"
   enable-background="new 0 0 756.85 354.33"
   xml:space="preserve"
   sodipodi:version="0.32"
   inkscape:version="0.46"
   sodipodi:docname="E30-PL.svg"
   inkscape:output_extension="org.inkscape.output.svg.inkscape"><metadata
   id="metadata15"><rdf:RDF><cc:Work
       rdf:about=""><dc:format>image/svg+xml</dc:format><dc:type
         rdf:resource="http://purl.org/dc/dcmitype/StillImage" /></cc:Work></rdf:RDF></metadata><defs
   id="defs13"><inkscape:perspective
     sodipodi:type="inkscape:persp3d"
     inkscape:vp_x="0 : 135.00003 : 1"
     inkscape:vp_y="0 : 1000 : 0"
     inkscape:vp_z="659.83917 : 135.00003 : 1"
     inkscape:persp3d-origin="329.91959 : 90.00002 : 1"
     id="perspective9" /></defs><sodipodi:namedview
   inkscape:window-height="712"
   inkscape:window-width="1280"
   inkscape:pageshadow="2"
   inkscape:pageopacity="0.0"
   guidetolerance="10.0"
   gridtolerance="10.0"
   objecttolerance="10.0"
   borderopacity="1.0"
   bordercolor="#666666"
   pagecolor="#ffffff"
   id="base"
   showgrid="false"
   inkscape:zoom="1.3587043"
   inkscape:cx="388.64875"
   inkscape:cy="148.17755"
   inkscape:window-x="-4"
   inkscape:window-y="-4"
   inkscape:current-layer="Vrstva_1"
   units="px" />






<path
   id="rect2780"
   stroke-miterlimit="10"
   d="M -95.236017,5.9055902 L 705.07605,5.9055902 C 718.89188,5.9055902 731.97897,17.787109 731.97897,32.808411 L 731.85386,321.52175 C 731.85386,336.54102 718.8919,348.42457 705.07605,348.42457 L -95.236017,348.42457 C -109.05084,348.42457 -122.13885,336.54102 -122.13885,321.52175 L -122.01373,32.808411 C -122.01373,17.78809 -109.04983,5.9055902 -95.236017,5.9055902 z"
   style="fill:#2c5c32;fill-opacity:1;stroke:#ffffff;stroke-width:11.81099987;stroke-miterlimit:10;stroke-dasharray:none;stroke-opacity:1"
   sodipodi:nodetypes="ccccccccc" /><path
   id="path3151"
   stroke-miterlimit="10"
   d="M -102.6405,0.98425013 L 712.48061,0.98425013 C 725.02121,0.98425013 736.90031,13.207196 736.90031,28.660147 L 736.78674,325.66992 C 736.78674,341.12079 725.02122,353.34582 712.48061,353.34582 L -102.6405,353.34582 C -115.18016,353.34582 -127.0601,341.12079 -127.0601,325.66992 L -126.94653,28.660147 C -126.94653,13.208204 -115.17924,0.98425013 -102.6405,0.98425013 z"
   style="fill:none;fill-opacity:1;stroke:#000000;stroke-width:1.96850026;stroke-miterlimit:10;stroke-dasharray:none;stroke-opacity:1"
   sodipodi:nodetypes="ccccccccc" /><path
   style="font-size:283.46343994px;font-style:normal;font-variant:normal;font-weight:bold;font-stretch:normal;text-align:center;line-height:125%;writing-mode:lr-tb;text-anchor:middle;fill:#ffffff;fill-opacity:1;stroke:none;stroke-width:1px;stroke-linecap:butt;stroke-linejoin:miter;stroke-opacity:1;font-family:Drogowskaz;-inkscape-font-specification:Drogowskaz Bold"
   d="M 69.790017,106.2991 L 149.51457,106.2991 L 149.51457,70.866104 L 34.356886,70.866104 L 34.356886,283.46409 L 149.51457,283.46409 L 149.51457,248.03109 L 69.790017,248.03109 L 69.790017,194.8816 L 131.798,194.8816 L 131.798,159.4486 L 69.790017,159.4486 L 69.790017,106.2991 L 69.790017,106.2991 z M 319.59273,182.71168 C 322.43223,181.97456 325.385,181.60208 328.451,181.59423 C 338.48438,181.84826 346.83479,185.30888 353.50223,191.9761 C 360.16944,198.64348 363.63007,206.99386 363.88414,217.02722 C 363.63007,227.06072 360.16944,235.41108 353.50223,242.07835 C 346.83479,248.74569 338.48439,252.20631 328.451,252.46022 C 318.41745,252.20631 310.06704,248.7457 303.39978,242.07835 C 296.73238,235.41109 293.27176,227.06072 293.01788,217.02722 L 257.58474,217.02722 C 258.0926,237.20113 265.01386,253.93244 278.34856,267.22117 C 291.68317,280.50995 308.38398,287.40061 328.451,287.89321 C 348.51786,287.40062 365.21865,280.50995 378.55345,267.22117 C 391.88796,253.93244 398.80923,237.20113 399.31727,217.02722 C 399.25386,206.94752 397.34983,197.51466 393.60517,188.7286 C 389.8602,179.94274 384.65414,172.24598 377.98697,165.63831 C 381.95124,160.41286 385.01411,154.66061 387.17562,148.38154 C 389.33682,142.10275 390.43127,135.45715 390.45899,128.44473 C 390.00669,110.94063 383.93508,96.342981 372.24414,84.651748 C 360.55293,72.960914 345.95523,66.88933 328.451,66.436978 C 310.94659,66.889335 296.34889,72.960921 284.65786,84.651752 C 272.96674,96.342982 266.89513,110.94063 266.44303,128.44473 L 301.87615,128.44473 C 302.06986,120.94305 304.67198,114.68692 309.68251,109.6763 C 314.6929,104.66603 320.94906,102.06393 328.451,101.86998 C 335.95277,102.06393 342.20892,104.66603 347.21949,109.6763 C 352.22984,114.68692 354.83196,120.94305 355.02585,128.44473 C 354.83196,135.9467 352.22984,142.20283 347.21949,147.21314 C 342.20892,152.22371 335.95277,154.82583 328.451,155.01948 C 325.33406,155.00477 322.3813,154.49586 319.59273,153.49276 L 319.59273,182.71168 L 319.59273,182.71168 z M 465.97519,177.16509 C 465.98886,167.94766 466.75745,158.94446 468.28094,150.15546 C 469.80434,141.36672 472.00033,132.84863 474.8689,124.60113 C 476.81099,119.19374 480.14741,114.81627 484.8782,111.46872 C 489.60885,108.12149 495.11889,106.39829 501.40832,106.2991 C 507.69757,106.3983 513.20761,108.1215 517.93842,111.46872 C 522.66904,114.81628 526.00548,119.19374 527.94774,124.60113 C 530.81615,132.84863 533.01212,141.36673 534.53569,150.15547 C 536.05902,158.94446 536.82761,167.94766 536.84145,177.16509 C 536.82761,186.38275 536.05903,195.38595 534.5357,204.17473 C 533.01213,212.96367 530.81615,221.48177 527.94774,229.72906 C 526.00549,235.13654 522.66905,239.51398 517.93842,242.86138 C 513.2076,246.20885 507.69756,247.93209 501.40832,248.03109 C 495.11889,247.93209 489.60886,246.20885 484.8782,242.86137 C 480.1474,239.51397 476.81098,235.13653 474.8689,229.72906 C 472.00032,221.48177 469.80433,212.96367 468.28094,204.17473 C 466.75744,195.38595 465.98886,186.38275 465.97519,177.16509 L 465.97519,177.16509 z M 430.54206,177.16509 C 430.61307,188.6439 431.79251,199.85251 434.08039,210.79095 C 436.36824,221.72953 439.33836,232.32237 442.99077,242.5695 C 447.52718,254.70908 454.99022,264.50643 465.37993,271.96159 C 475.76955,279.41678 487.779,283.25094 501.40832,283.46409 C 515.03747,283.25095 527.04695,279.41679 537.43678,271.9616 C 547.82638,264.50643 555.28946,254.70908 559.82604,242.5695 C 563.47812,232.32237 566.44817,221.72953 568.7362,210.79095 C 571.02393,199.85251 572.20339,188.6439 572.27459,177.16509 C 572.20339,165.6865 571.02393,154.47789 568.7362,143.53924 C 566.44817,132.60086 563.47812,122.00801 559.82604,111.76066 C 555.28946,99.621381 547.82638,89.824056 537.43678,82.368649 C 527.04695,74.913644 515.03747,71.079466 501.40832,70.866104 C 487.779,71.079466 475.76955,74.913644 465.37993,82.368649 C 454.99022,89.824056 447.52718,99.621381 442.99077,111.76066 C 439.33836,122.00801 436.36824,132.60086 434.08038,143.53924 C 431.7925,154.47789 430.61306,165.6865 430.54206,177.16509 L 430.54206,177.16509 z"
   id="text2381"
   sodipodi:nodetypes="ccccccccccccccccscscsccscscscscscsccscscscccccscscscscscscscscccscscscscscscscscc" />



</svg>