<?xml version="1.0" encoding="iso-8859-1"?>
<!-- Generator: Adobe Illustrator 16.0.0, SVG Export Plug-In . SVG Version: 6.00 Build 0)  -->
<!DOCTYPE svg PUBLIC "-//W3C//DTD SVG 1.1//EN" "http://www.w3.org/Graphics/SVG/1.1/DTD/svg11.dtd">
<svg xmlns="http://www.w3.org/2000/svg" xmlns:xlink="http://www.w3.org/1999/xlink" version="1.1" id="Capa_1" x="0px" y="0px" width="512px" height="512px" viewBox="0 0 490 490" style="enable-background:new 0 0 490 490;" xml:space="preserve">
<g>
	<path d="M0,5.593v478.813h490V5.593H0z M218.309,35.25h56.482V91.73h-56.482V35.25L218.309,35.25z M50.5,35.25h56.482V91.73H50.5   V35.25z M106.982,454.75H50.5v-56.482h56.482V454.75z M47.687,365.449v-96.605h64.878c7.611,42.381,35.136,77.936,72.508,96.605   H47.687z M112.564,221.156H47.687V124.55h137.386C147.699,143.221,120.176,178.774,112.564,221.156z M274.791,454.75h-56.482   v-56.482h56.482V454.75z M236.894,321.717c-18.037,0-33.564-5.022-41.555-10.274l6.393-21.235   c5.708,3.429,19.636,9.135,33.792,9.135c21.462,0,30.139-12.102,29.912-23.745c0-17.58-16.439-25.117-33.564-25.117h-13.014   v-20.547h12.558c13.014,0,29.454-5.937,29.454-20.779c0-10.045-7.535-18.494-23.746-18.494c-12.102,0-24.202,5.251-30.367,9.363   l-6.393-20.323c8.448-5.937,24.887-11.416,42.697-11.416c30.594,0,46.35,16.896,46.35,36.305c0,15.524-9.133,28.312-27.399,34.705   v0.457c18.038,3.194,32.651,16.896,32.651,36.989C294.661,301.851,273.654,321.717,236.894,321.717z M377.436,268.843h64.88v96.605   H304.928C342.3,346.779,369.824,311.224,377.436,268.843z M304.928,124.55h137.388v96.605h-64.88   C369.824,178.774,342.301,143.221,304.928,124.55z M442.599,454.75h-56.481v-56.482h56.481V454.75z M442.599,91.73h-56.481V35.25   h56.481V91.73z" fill="#FFFFFF"/>
</g>
<g>
</g>
<g>
</g>
<g>
</g>
<g>
</g>
<g>
</g>
<g>
</g>
<g>
</g>
<g>
</g>
<g>
</g>
<g>
</g>
<g>
</g>
<g>
</g>
<g>
</g>
<g>
</g>
<g>
</g>
</svg>
